<svg width="88" height="91" viewBox="0 0 88 91" fill="none" xmlns="http://www.w3.org/2000/svg">
<path d="M42.3361 35.2303C43.5832 38.0363 43.895 41.7775 43.895 46.1423C43.895 50.5071 43.2714 54.5601 42.3361 58.9249C41.4008 63.2897 39.842 67.031 37.9714 70.7722C36.1007 74.5135 33.9183 77.9429 31.1124 80.7489C28.3064 83.8666 25.5005 86.049 22.3828 87.9196C19.2651 89.7902 16.4592 90.7255 13.6532 90.7255C10.8473 90.7255 8.66488 90.102 6.79426 88.5432C4.92363 86.9843 3.36478 84.8019 2.11769 81.996C1.18238 79.1901 0.558838 75.4488 0.558838 71.084C0.558838 66.7192 1.18238 62.6662 2.11769 58.3014C3.05301 54.2483 4.61184 50.1953 6.48247 46.4541C8.35309 42.7128 10.5355 39.2833 13.3414 36.4774C15.8356 33.3597 18.9533 31.1773 22.071 29.3067C25.1887 27.436 27.9947 26.5007 30.8006 26.5007C33.6066 26.5007 35.7889 27.1243 37.6596 28.6831C39.842 29.9302 41.4008 32.1126 42.3361 35.2303ZM32.0477 59.8602C32.6712 57.3661 32.6712 54.8719 32.6712 52.3777C32.6712 49.8836 32.3595 47.7012 32.0477 45.8305C31.4242 43.9599 30.8006 42.4011 29.8653 41.4658C28.93 40.5304 27.9947 39.9069 26.4358 39.9069C25.1887 39.9069 23.6299 40.2186 22.3828 41.154C20.824 42.0893 19.2651 43.3364 18.018 44.8952C16.7709 46.4541 15.5238 48.3247 14.9003 50.1953C13.965 52.3777 13.3414 54.5601 12.7179 57.0543C12.0943 59.5485 12.0944 62.0426 12.0944 64.5368C12.0944 67.031 12.4061 69.2134 12.7179 71.084C13.3414 72.9546 13.965 74.2017 14.9003 75.4488C15.8356 76.3841 16.7709 77.0076 18.3298 77.0076C19.5769 77.0076 21.1357 76.6959 22.6946 75.7606C24.2534 74.8253 25.5005 73.5781 26.7476 72.0193C27.9947 70.4604 29.2418 68.5898 30.1771 66.4074C30.8006 64.5368 31.4242 62.3544 32.0477 59.8602Z" fill="#E9E3C6"/>
<path d="M76.9427 0L76.9427 43.3362L87.5429 37.1007L87.5429 48.6363L53.5599 68.2778L53.5599 56.7423L65.4072 49.8834L65.4072 20.5769C64.7836 21.5122 64.1601 22.7593 62.913 24.3181C61.666 25.877 60.7306 27.1241 59.4835 28.6829C58.2365 30.2418 56.9894 31.4889 55.4305 32.736C54.1834 33.983 52.9363 34.9183 51.6893 35.5419L51.6893 23.3828C52.6246 22.7593 53.8717 21.824 55.4305 20.2651C56.9894 18.7063 58.2365 16.8356 59.7953 15.2768C61.0424 13.4061 62.2895 11.8473 63.5366 9.97666C64.4719 8.41781 65.0954 7.17071 65.4072 6.54716L76.9427 0Z" fill="#E9E3C6"/>
</svg>
