<svg width="92" height="94" viewBox="0 0 92 94" fill="none" xmlns="http://www.w3.org/2000/svg">
<path d="M41.8653 37.6898C43.1124 40.4957 43.4242 44.237 43.4242 48.6018C43.4242 52.9666 42.8006 57.0196 41.8653 61.3844C40.93 65.4374 39.3712 69.4905 37.5005 73.2317C35.6299 76.973 33.1357 80.4024 30.6415 83.2083C27.8356 86.3261 25.0297 88.5085 21.912 90.3791C18.7943 92.2498 15.9883 93.1851 13.1824 93.1851C10.3764 93.1851 8.19406 92.5615 6.32343 91.0026C4.45281 89.4438 2.89395 87.2614 1.64687 84.4555C0.399784 81.6496 0.0880127 77.9083 0.0880127 73.5435C0.0880127 69.1787 0.711555 65.1257 1.64687 60.7609C2.58218 56.3961 4.14102 52.6548 6.01164 48.9136C7.88227 45.1723 10.0647 41.7429 12.8706 38.9369C15.3648 35.8192 18.4825 33.6368 21.6002 31.7662C24.7179 29.8955 27.5238 28.9602 30.3297 28.9602C33.1357 28.9602 35.3181 29.5838 37.1887 31.1426C39.0594 32.3897 40.6182 34.5721 41.8653 37.6898ZM31.2651 62.6315C31.8887 60.1373 31.8886 57.6432 31.8886 55.149C31.8886 52.6548 31.5769 50.4724 31.2651 48.6018C30.6416 46.7312 30.018 45.1723 29.0827 44.237C28.1474 43.3017 27.2121 42.6782 25.6532 42.6782C24.4061 42.6782 22.8473 42.9899 21.6002 43.9252C20.0413 44.8605 18.4825 46.1076 17.2354 47.6665C15.9883 49.2253 14.7412 51.096 13.8059 53.2784C12.8706 55.4608 12.2471 57.6431 11.6235 60.1373C11 62.6315 11 65.1257 11 67.6198C11 70.114 11.3118 72.2964 11.6235 74.167C12.2471 76.0376 12.8706 77.2847 13.8059 78.5318C14.7412 79.4671 15.6766 80.0906 17.2354 80.0906C18.4825 80.0906 20.0413 79.7789 21.6002 78.8436C23.159 77.9083 24.4061 76.6612 25.6532 75.1024C26.9003 73.5435 28.1473 71.6728 28.7709 69.4904C30.018 66.9963 30.9533 64.8139 31.2651 62.6315Z" fill="#B9D6E9"/>
<path d="M72.1071 4.01865C74.9131 2.4598 77.4072 1.21271 79.9014 0.900943C82.0838 0.589172 83.9544 0.589172 85.5133 0.900943C87.0721 1.52448 88.3192 2.4598 88.9428 4.01865C89.5663 5.57751 90.1898 7.44816 90.1898 9.94233C90.1898 12.1247 89.8781 14.3071 89.2545 16.4895C88.631 18.6719 87.6956 20.8543 86.4485 22.7249C85.2014 24.5955 83.9544 26.4662 82.7073 28.3368C81.4602 30.2074 80.2131 31.7663 78.966 33.3252C78.0307 34.5722 76.7836 35.8193 75.5365 37.3782C74.2895 38.937 73.0424 40.4959 71.7953 42.3665C70.5483 43.9254 69.3012 45.796 68.3658 47.3549C67.4305 48.9137 66.4953 50.4726 65.8717 52.0314L91.4369 37.3782L91.4369 48.9137L50.9066 72.2965C50.9066 69.4906 51.2185 66.6846 51.5302 64.1905C51.842 61.6963 52.4655 58.8904 53.7126 56.3962C54.6479 53.902 55.895 51.0961 57.7656 48.6019C59.3245 45.796 61.5069 42.99 64.3129 39.8723C66.4953 37.0664 68.6777 34.5723 70.5483 32.7016C72.4189 30.5192 73.666 28.6486 74.9131 27.0897C76.1601 25.5309 77.0954 23.972 77.719 22.7249C78.3425 21.4778 78.6542 20.2308 78.6542 18.9837C78.6542 17.113 78.0308 15.866 76.4719 15.2424C75.2248 14.6189 73.3542 14.9306 70.5483 16.4895C69.3012 17.4248 68.0541 18.0484 66.807 19.2955C65.5599 20.2308 64.6246 21.4778 63.6893 22.7249C62.754 23.972 61.8187 25.2191 60.8834 26.7779C59.948 28.025 59.3245 29.5839 58.7009 30.831L51.5302 25.5309C52.1538 24.2838 53.4009 22.7249 54.6479 20.8543C55.895 18.9837 57.4539 17.1131 59.3245 15.2424C61.1951 13.3718 63.0657 11.1894 65.2481 9.3188C67.4305 7.1364 69.613 5.57751 72.1071 4.01865Z" fill="#B9D6E9"/>
</svg>
