<svg width="93" height="92" viewBox="0 0 93 92" fill="none" xmlns="http://www.w3.org/2000/svg">
<path d="M42.5834 36.2381C43.5187 39.3558 44.1422 42.7853 44.1422 47.1501C44.1422 51.5149 43.5187 55.5679 42.5834 59.9327C41.648 64.2975 40.0892 68.0388 37.9068 71.78C36.0362 75.5213 33.8538 78.9508 31.0479 81.7567C28.5537 84.8744 25.4359 87.0568 22.3182 88.9274C19.2005 90.7981 16.3946 91.7334 13.5887 91.7334C10.7827 91.7334 8.60031 91.1098 6.72968 89.551C4.85906 87.9921 3.3002 85.8097 2.05312 83.0038C0.806034 80.1978 0.494263 76.4566 0.494263 72.0918C0.494263 67.727 1.1178 63.674 2.05312 59.3092C2.98843 55.2562 4.54736 51.2031 6.41799 47.4619C8.28861 43.7206 10.471 40.2911 13.2769 37.4852C15.7711 34.3675 18.8888 32.1851 22.0065 30.3145C25.1243 28.4438 27.9302 27.5085 30.7361 27.5085C33.542 27.5085 35.7245 28.1321 37.5951 29.6909C40.0893 31.2498 41.648 33.4322 42.5834 36.2381ZM32.2949 61.1798C32.9185 58.6856 32.9185 56.1915 32.9185 53.6973C32.9185 51.2031 32.6067 49.0207 32.2949 47.1501C31.6714 45.2795 31.0478 43.7206 30.1125 42.7853C29.1772 41.85 28.242 41.2265 26.6831 41.2265C25.436 41.2265 23.8771 41.5382 22.63 42.4735C21.0712 43.4088 19.5123 44.656 18.2652 46.2148C17.0182 47.7737 15.7711 49.6443 15.1475 51.5149C14.2122 53.6973 13.5886 55.8797 12.9651 58.3739C12.3416 60.868 12.3416 63.3622 12.3416 65.8563C12.3416 68.3505 12.6533 70.5329 12.9651 72.4036C13.5886 74.2742 14.2122 75.5213 15.1475 76.7683C16.0829 77.7036 17.0182 78.3272 18.577 78.3272C19.8241 78.3272 21.383 78.0154 22.9418 77.0801C24.5007 76.1448 25.7477 74.8977 26.9948 73.3389C28.2419 71.78 29.489 69.9094 30.1125 67.727C31.0478 65.8564 31.6714 63.674 32.2949 61.1798Z" fill="#912462"/>
<path d="M71.8899 3.814C74.6959 2.25515 77.19 1.00807 79.6842 0.696294C82.1784 0.0727522 84.049 0.0727522 85.9196 0.696294C87.4785 1.31984 89.0373 2.25515 89.9726 3.814C90.9079 5.37286 91.5314 7.55526 91.5314 10.0494C91.5314 11.9201 91.2196 14.1024 90.9079 15.9731C90.2843 18.1555 89.6608 20.0261 88.7255 21.8967C87.7902 23.7674 86.5431 25.638 85.296 27.5086C84.0489 29.3792 82.4901 30.6263 80.9313 31.8734C84.3607 30.6263 87.1666 30.9381 89.349 32.8087C91.5314 34.6793 92.4667 37.797 92.4667 42.4736C92.4667 45.5913 91.8432 48.3973 90.9079 51.515C89.9726 54.6327 88.4137 57.4386 86.5431 60.2446C84.6725 63.0505 82.4901 65.5447 79.6842 68.0389C76.8782 70.533 74.0722 72.7154 70.6427 74.586C66.278 77.0802 62.5368 78.3273 59.4191 78.6391C55.9896 78.9508 53.4954 78.3273 51.313 76.4567L57.5484 63.674C59.1073 64.9211 60.6661 65.5447 62.8485 65.5447C64.7191 65.5447 67.5251 64.6094 70.3311 63.0505C73.7605 61.1799 76.2547 58.6857 78.1253 56.1915C79.996 53.6974 80.9313 50.5797 80.9313 47.4619C80.9313 44.0325 79.9959 42.1619 77.8135 41.5383C75.6311 40.9148 72.5134 41.8501 68.4604 44.3442L65.9662 45.5913L65.9662 35.9264L68.4604 34.3676C71.8899 32.4969 74.6959 30.0028 76.5665 27.1968C78.4371 24.3909 79.3724 21.585 79.3724 18.779C79.3724 16.2849 78.437 14.726 76.8782 14.1025C75.3193 13.7907 73.1369 14.1025 70.6427 15.6613C68.1486 17.2202 65.6545 19.0908 63.7838 21.5849C61.6014 24.0791 60.0426 26.8851 58.7955 30.3145L51.6248 25.3262C52.5601 23.4556 53.4953 21.2732 55.0542 19.4026C56.3013 17.5319 58.1719 15.3496 59.7308 13.4789C61.6014 11.6083 63.4721 9.73764 65.3427 8.17878C67.5251 6.61993 69.7075 5.06109 71.8899 3.814Z" fill="#912462"/>
</svg>
