<svg width="94" height="96" viewBox="0 0 94 96" fill="none" xmlns="http://www.w3.org/2000/svg">
<path d="M42.4896 40.4396C43.7366 43.2456 44.0484 46.9868 44.0484 51.3516C44.0484 55.7164 43.4249 59.7694 42.4896 64.1342C41.5542 68.1873 39.9953 72.2403 38.1247 75.9815C36.2541 79.7228 33.7599 83.1522 31.2657 85.9582C28.4597 89.0759 25.6538 91.2583 22.5361 93.129C19.4184 94.9996 16.6125 95.9349 13.8066 95.9349C11.3124 95.9349 8.81821 95.3113 6.94758 93.7524C5.07695 92.1936 3.5181 90.0113 2.27101 87.2053C1.02393 84.3994 0.712158 80.6581 0.712158 76.2933C0.712158 71.9285 1.3357 67.8755 2.27101 63.5107C3.20633 59.1459 4.76526 55.4046 6.63588 51.6634C8.50651 47.9221 10.6888 44.4927 13.4947 41.6867C15.9889 38.569 19.1067 36.3866 22.2244 34.516C25.3421 32.6454 28.1481 31.71 30.954 31.71C33.7599 31.71 35.9424 32.3336 37.813 33.8925C39.6836 35.4513 41.2425 37.6337 42.4896 40.4396ZM31.8893 65.3813C32.5128 62.8871 32.5128 60.393 32.5128 57.8988C32.5128 55.4046 32.201 53.2222 31.8893 51.3516C31.2657 49.481 30.6421 47.9221 29.7068 46.9868C28.7715 46.0515 27.5245 45.428 26.2774 45.428C25.0303 45.428 23.4715 45.7397 22.2244 46.675C20.6656 47.6104 19.1067 48.8574 17.8596 50.4163C16.6125 51.9751 15.3655 53.8458 14.4302 56.0282C13.4948 58.2106 12.8713 60.393 12.2477 62.8871C11.6242 65.3813 11.6241 67.8755 11.6241 70.3697C11.6241 72.8638 11.936 75.0462 12.2477 76.9168C12.8713 78.7874 13.4948 80.0345 14.4302 81.2816C15.3655 82.2169 16.3007 82.8405 17.8596 82.8405C19.1067 82.8405 20.6656 82.5287 22.2244 81.5934C23.7833 80.6581 25.0303 79.411 26.2774 77.8522C27.5245 76.2933 28.7715 74.4227 29.7068 72.2403C30.6421 70.0579 31.5775 67.5637 31.8893 65.3813Z" fill="#31BF90"/>
<path d="M85.8257 41.6863L93.3082 37.3214L93.3082 48.857L85.8257 53.2218L85.8257 67.5632L74.602 74.1104L74.602 59.7689L49.972 73.7986L49.972 62.2631L78.0314 4.58548L85.8257 0.220703L85.8257 41.6863ZM75.8489 47.6099L75.8489 25.7859L61.5076 56.0277L75.8489 47.6099Z" fill="#31BF90"/>
</svg>
