<svg width="93" height="98" viewBox="0 0 93 98" fill="none" xmlns="http://www.w3.org/2000/svg">
<path d="M42.5206 41.8879C43.7676 44.6938 44.0794 48.4351 44.0794 52.7999C44.0794 57.1647 43.4559 61.2177 42.5206 65.5825C41.5852 69.9473 40.0263 73.6885 38.1557 77.4298C36.2851 81.171 33.7909 84.6005 31.2967 87.4065C28.4908 90.5242 25.6848 92.7066 22.5671 94.5772C19.4494 96.4478 16.6435 97.3831 13.8376 97.3831C11.3434 97.3831 8.84921 96.7596 6.97859 95.2008C5.10796 93.6419 3.5491 91.4595 2.30202 88.6535C1.05494 85.8476 0.743164 82.1064 0.743164 77.7416C0.743164 73.3768 1.36671 69.3237 2.30202 64.9589C3.23733 60.9059 4.79626 56.8529 6.66689 53.1117C8.53752 49.3704 10.7198 45.9409 13.5257 43.135C16.0199 40.0172 19.1377 37.8349 22.2554 35.9643C25.3732 34.0936 28.1791 33.1583 30.985 33.1583C33.7909 33.1583 35.9734 33.7818 37.844 35.3407C40.0264 36.5878 41.2735 38.7702 42.5206 41.8879ZM32.232 66.5178C32.8555 64.0236 32.8555 61.5295 32.8555 59.0353C32.8555 56.5411 32.5437 54.3587 32.232 52.4881C31.6084 50.6175 30.985 49.0586 30.0497 48.1233C29.1144 47.188 27.8672 46.5645 26.6201 46.5645C25.373 46.5645 23.8142 46.8762 22.5671 47.8115C21.0083 48.7468 19.4494 49.994 18.2023 51.5528C16.9552 53.1117 15.7082 54.9823 14.7729 57.1647C13.8375 59.3471 13.214 61.5295 12.5904 64.0237C11.9669 66.5178 11.9668 69.012 11.9668 71.5061C11.9668 74.0003 12.2787 76.1827 12.5904 78.0534C13.214 79.924 13.8375 81.171 14.7729 82.4181C15.7082 83.3534 16.6434 83.977 18.2023 83.977C19.4494 83.977 21.0083 83.6652 22.5671 82.7299C24.126 81.7946 25.373 80.5475 26.6201 78.9886C27.8672 77.4298 29.1144 75.5592 30.0497 73.3768C30.985 71.1944 31.6084 69.012 32.232 66.5178Z" fill="#FFE06F"/>
<path d="M88.6626 0.110352L88.6626 11.9576L67.4622 24.1167L64.9679 40.9523C65.5915 39.7052 66.5268 38.4582 68.0856 37.2111C69.3327 35.964 70.8917 34.7169 73.0741 33.7816C75.88 32.2227 78.3742 31.2874 80.8684 30.9757C83.3625 30.6639 85.2332 30.9757 87.1038 31.911C88.9744 32.8463 90.2215 34.4052 91.1568 36.5876C92.0921 38.77 92.7156 41.5759 92.7156 44.6936C92.7156 48.1231 92.0921 51.5525 91.1568 54.982C90.2215 58.4115 88.6626 61.841 86.4802 64.9587C84.6096 68.0764 82.1154 71.1941 79.6212 73.6883C76.8153 76.4942 74.0094 78.6766 70.8917 80.5472C66.5269 83.0414 62.4739 84.2885 59.0444 83.9767C55.6149 83.9767 53.1207 82.4179 51.2501 79.9237L57.7972 68.3882C59.3561 69.947 61.2268 70.8824 63.721 70.8824C66.2151 70.8824 68.3974 70.2588 71.2033 69.0117C74.3211 67.1411 76.8153 64.9587 78.6859 61.5292C80.5566 58.4115 81.4919 54.9821 81.4919 51.5526C81.4919 48.1231 80.5566 45.9407 78.6859 45.0054C76.8153 44.07 74.6329 44.3818 71.8269 45.9407C69.9563 46.876 68.3974 48.4348 66.5268 50.3055C64.9679 52.1761 63.721 54.3585 62.7857 56.5409L52.809 62.1528C52.809 61.841 52.8089 61.2174 53.1207 59.6586C53.4324 58.4115 53.7442 56.5409 54.0559 54.3585C54.3677 52.1761 54.6796 49.6819 54.9914 47.1877C55.3032 44.6936 55.9266 41.8877 56.2384 39.0817C57.1737 32.5345 58.4209 25.3638 59.668 17.2578L88.6626 0.110352Z" fill="#FFE06F"/>
</svg>
