<svg width="159" height="37" viewBox="0 0 159 37" fill="none" xmlns="http://www.w3.org/2000/svg">
<path d="M25.7676 11.1665H29.6328L36.0747 33.4986H32.2095L25.7676 11.1665Z" fill="white"/>
<path d="M18.0381 11.1665H22.2254L29.2042 33.4986H25.0169L18.0381 11.1665Z" fill="white"/>
<path d="M9.93903 2.63047L0 36.075L7.73035 33.8203L18.0375 0L9.93903 2.63047Z" fill="white"/>
<path d="M39.668 4.03928V6.13944H46.5001V23.1002H48.6003V6.13944H55.3527V4.03928H39.668Z" fill="white"/>
<path d="M60.493 4.03928V6.13944H67.3252V23.1002H69.4253V6.13944H76.1777V4.03928H60.493Z" fill="white"/>
<path d="M89.4794 23.4325C87.911 23.4325 86.4887 23.0603 85.2127 22.316C83.6708 21.421 82.6517 20.1316 82.1555 18.448L84.1493 17.8631C84.4949 19.0505 85.2171 19.9544 86.3159 20.5747C87.2375 21.0975 88.2964 21.3589 89.4927 21.3589C89.6788 21.3589 89.8383 21.3545 89.9712 21.3456C90.1042 21.3368 90.2637 21.3146 90.4498 21.2792C90.9726 21.1994 91.4467 21.0621 91.872 20.8671C93.1126 20.3 93.7861 19.3297 93.8924 17.9561C93.9456 17.2384 93.7329 16.6003 93.2544 16.0421C92.51 15.1737 91.3138 14.6863 89.6655 14.5799C86.9008 14.3939 84.8981 13.747 83.6575 12.6393C82.7182 11.7975 82.2485 10.7164 82.2485 9.39601C82.2485 7.61486 82.953 6.18818 84.362 5.11594C85.6292 4.14119 87.1666 3.65381 88.9743 3.65381C91.1099 3.65381 92.8955 4.41146 94.3311 5.92676C94.783 6.41414 95.1773 6.95026 95.5141 7.53511C95.6204 7.7212 95.7533 7.99147 95.9128 8.34593L93.9722 9.077C93.857 8.82888 93.7196 8.56747 93.5601 8.29276C93.4006 8.0092 93.1525 7.69905 92.8158 7.36231C91.779 6.27236 90.4985 5.72738 88.9743 5.72738C88.5135 5.72738 88.0439 5.78498 87.5654 5.90018C86.9982 6.02424 86.4931 6.21476 86.0501 6.47174C84.8981 7.13635 84.3221 8.1111 84.3221 9.39601C84.3221 11.2303 86.152 12.2671 89.8117 12.5064C92.0271 12.657 93.6975 13.3836 94.8229 14.6863C95.6824 15.6788 96.0635 16.8219 95.966 18.1156C95.8242 19.8436 95.0843 21.1906 93.7462 22.1565C92.5676 23.0072 91.1542 23.4325 89.506 23.4325H89.4794Z" fill="white"/>
<path d="M118.851 23.5123L105.174 8.97066V23.1002H103.074V3.6671L116.751 18.222V4.03928H118.851V23.5123Z" fill="white"/>
<path d="M137.789 6.13944V4.03928H126.424V23.1002H128.524V14.5932H135.994V12.4931H128.524V6.13944H137.789Z" fill="white"/>
<path d="M143.315 4.03928V6.13944H150.147V23.1002H152.247V6.13944H158.999V4.03928H143.315Z" fill="white"/>
<path d="M46.0757 27.592V28.0049H44.1337V32.8828H43.7208V28.0049H41.7559V27.592H46.0757Z" fill="white"/>
<path d="M52.6721 27.592V32.8828H52.2592V30.44H49.1169V32.8828H48.704V27.592H49.1169V30.0271H52.2592V27.592H52.6721Z" fill="white"/>
<path d="M58.7295 32.47V32.8828H55.6521V27.592H58.7295V28.0049H56.065V30.0157H58.2134V30.4285H56.065V32.47H58.7295Z" fill="white"/>
<path d="M68.7073 27.592V28.0049H66.7653V32.8828H66.3524V28.0049H64.3875V27.592H68.7073Z" fill="white"/>
<path d="M73.1515 31.2008L72.0964 28.5859L71.0413 31.2008H73.1515ZM74.2792 32.8828H73.8358L73.3197 31.6098H70.873L70.357 32.8828H69.9135L72.0964 27.4888L74.2792 32.8828Z" fill="white"/>
<path d="M79.7899 27.592V28.0049H77.8479V32.8828H77.4351V28.0049H75.4701V27.592H79.7899Z" fill="white"/>
<path d="M86.3711 27.592V28.0049H84.4291V32.8828H84.0162V28.0049H82.0512V27.592H86.3711Z" fill="white"/>
<path d="M91.0561 27.894C90.4087 27.894 89.8557 28.1221 89.3969 28.5783C88.9382 29.0396 88.7088 29.5926 88.7088 30.2374C88.7088 30.8822 88.9382 31.4352 89.3969 31.8965C89.8557 32.3527 90.4087 32.5808 91.0561 32.5808C91.7009 32.5808 92.2526 32.3527 92.7114 31.8965C93.1701 31.4352 93.3995 30.8822 93.3995 30.2374C93.3995 29.5926 93.1701 29.0396 92.7114 28.5783C92.2526 28.1221 91.7009 27.894 91.0561 27.894ZM91.0561 32.986C90.6814 32.986 90.3246 32.9147 89.9857 32.772C89.6569 32.6318 89.3664 32.4343 89.114 32.1794C88.8592 31.9271 88.6617 31.6366 88.5215 31.3078C88.3762 30.9663 88.3036 30.6095 88.3036 30.2374C88.3036 29.8653 88.3762 29.5098 88.5215 29.1708C88.6617 28.8395 88.8592 28.5477 89.114 28.2954C89.3664 28.0405 89.6569 27.8443 89.9857 27.7067C90.3246 27.5614 90.6814 27.4888 91.0561 27.4888C91.4282 27.4888 91.7837 27.5614 92.1226 27.7067C92.4514 27.8443 92.7419 28.0405 92.9943 28.2954C93.2517 28.5477 93.4492 28.8395 93.5868 29.1708C93.7321 29.5098 93.8047 29.8653 93.8047 30.2374C93.8047 30.6095 93.7321 30.9663 93.5868 31.3078C93.4492 31.6366 93.2517 31.9271 92.9943 32.1794C92.7419 32.4343 92.4514 32.6318 92.1226 32.772C91.7837 32.9147 91.4282 32.986 91.0561 32.986Z" fill="white"/>
<path d="M99.2887 27.894C98.6413 27.894 98.0883 28.1221 97.6295 28.5783C97.1708 29.0396 96.9414 29.5926 96.9414 30.2374C96.9414 30.8822 97.1708 31.4352 97.6295 31.8965C98.0883 32.3527 98.6413 32.5808 99.2887 32.5808C99.9335 32.5808 100.485 32.3527 100.944 31.8965C101.403 31.4352 101.632 30.8822 101.632 30.2374C101.632 29.5926 101.403 29.0396 100.944 28.5783C100.485 28.1221 99.9335 27.894 99.2887 27.894ZM99.2887 32.986C98.914 32.986 98.5572 32.9147 98.2183 32.772C97.8895 32.6318 97.599 32.4343 97.3467 32.1794C97.0918 31.9271 96.8943 31.6366 96.7541 31.3078C96.6088 30.9663 96.5362 30.6095 96.5362 30.2374C96.5362 29.8653 96.6088 29.5098 96.7541 29.1708C96.8943 28.8395 97.0918 28.5477 97.3467 28.2954C97.599 28.0405 97.8895 27.8443 98.2183 27.7067C98.5572 27.5614 98.914 27.4888 99.2887 27.4888C99.6608 27.4888 100.016 27.5614 100.355 27.7067C100.684 27.8443 100.975 28.0405 101.227 28.2954C101.484 28.5477 101.682 28.8395 101.819 29.1708C101.965 29.5098 102.037 29.8653 102.037 30.2374C102.037 30.6095 101.965 30.9663 101.819 31.3078C101.682 31.6366 101.484 31.9271 101.227 32.1794C100.975 32.4343 100.684 32.6318 100.355 32.772C100.016 32.9147 99.6608 32.986 99.2887 32.986Z" fill="white"/>
<path d="M110.039 32.986C109.605 32.986 109.213 32.8828 108.861 32.6764C108.438 32.4317 108.168 32.1106 108.051 31.713L108.441 31.5983C108.53 31.9042 108.744 32.1527 109.083 32.3438C109.361 32.5018 109.681 32.5808 110.043 32.5808C110.099 32.5808 110.147 32.5795 110.188 32.577C110.229 32.5744 110.277 32.5681 110.333 32.5579C110.491 32.5324 110.635 32.4903 110.765 32.4317C111.158 32.2533 111.37 31.9475 111.403 31.5142C111.421 31.2823 111.352 31.0759 111.197 30.8949C110.965 30.6248 110.599 30.4731 110.1 30.44C109.325 30.389 108.768 30.2106 108.429 29.9048C108.18 29.6831 108.055 29.3964 108.055 29.0447C108.055 28.563 108.245 28.1782 108.624 27.8902C108.973 27.6226 109.396 27.4888 109.893 27.4888C110.48 27.4888 110.97 27.6965 111.365 28.1119C111.49 28.247 111.598 28.3948 111.69 28.5553C111.721 28.6063 111.744 28.6509 111.759 28.6891L111.381 28.8306C111.37 28.8128 111.341 28.7618 111.293 28.6777C111.244 28.591 111.169 28.4967 111.067 28.3948C110.751 28.0609 110.36 27.894 109.893 27.894C109.753 27.894 109.611 27.9118 109.465 27.9475C109.295 27.9832 109.14 28.0405 109.003 28.1195C108.641 28.3311 108.46 28.6395 108.46 29.0447C108.46 29.6308 109.015 29.9609 110.127 30.0348C110.738 30.0756 111.197 30.2731 111.503 30.6273C111.732 30.8924 111.834 31.1982 111.809 31.5448C111.77 32.0112 111.57 32.3757 111.208 32.6382C110.887 32.8701 110.5 32.986 110.046 32.986H110.039Z" fill="white"/>
<path d="M118.604 27.592V32.8828H118.191V30.44H115.049V32.8828H114.636V27.592H115.049V30.0271H118.191V27.592H118.604Z" fill="white"/>
<path d="M124.099 27.894C123.452 27.894 122.899 28.1221 122.44 28.5783C121.981 29.0396 121.752 29.5926 121.752 30.2374C121.752 30.8822 121.981 31.4352 122.44 31.8965C122.899 32.3527 123.452 32.5808 124.099 32.5808C124.744 32.5808 125.296 32.3527 125.755 31.8965C126.213 31.4352 126.443 30.8822 126.443 30.2374C126.443 29.5926 126.213 29.0396 125.755 28.5783C125.296 28.1221 124.744 27.894 124.099 27.894ZM124.099 32.986C123.725 32.986 123.368 32.9147 123.029 32.772C122.7 32.6318 122.41 32.4343 122.157 32.1794C121.902 31.9271 121.705 31.6366 121.565 31.3078C121.42 30.9663 121.347 30.6095 121.347 30.2374C121.347 29.8653 121.42 29.5098 121.565 29.1708C121.705 28.8395 121.902 28.5477 122.157 28.2954C122.41 28.0405 122.7 27.8443 123.029 27.7067C123.368 27.5614 123.725 27.4888 124.099 27.4888C124.471 27.4888 124.827 27.5614 125.166 27.7067C125.495 27.8443 125.785 28.0405 126.038 28.2954C126.295 28.5477 126.492 28.8395 126.63 29.1708C126.775 29.5098 126.848 29.8653 126.848 30.2374C126.848 30.6095 126.775 30.9663 126.63 31.3078C126.492 31.6366 126.295 31.9271 126.038 32.1794C125.785 32.4343 125.495 32.6318 125.166 32.772C124.827 32.9147 124.471 32.986 124.099 32.986Z" fill="white"/>
<path d="M131.537 30.8414C131.927 30.8414 132.261 30.7038 132.538 30.4285C132.816 30.1482 132.955 29.8131 132.955 29.4231C132.955 29.0332 132.816 28.6981 132.538 28.4177C132.261 28.1425 131.927 28.0049 131.537 28.0049H130.115V30.8414H131.537ZM131.537 27.592C132.041 27.592 132.472 27.7717 132.829 28.131C133.188 28.4853 133.368 28.916 133.368 29.4231C133.368 29.9278 133.188 30.3585 132.829 30.7153C132.472 31.0746 132.041 31.2543 131.537 31.2543H130.115V32.8828H129.702V27.592H131.537Z" fill="white"/>
<path d="M143.732 32.8561L139.798 28.6739V32.8828H139.385V27.6302L143.319 31.8162V27.592H143.732V32.8561Z" fill="white"/>
<path d="M147.106 28.0049V30.0233H149.254V30.4362H147.106V32.8828H146.693V27.592H149.77V28.0049H147.106Z" fill="white"/>
<path d="M156.462 27.592V28.0049H154.52V32.8828H154.107V28.0049H152.142V27.592H156.462Z" fill="white"/>
</svg>
